<svg xmlns="http://www.w3.org/2000/svg" viewBox="0 0 800 800" width="100%" height="100%">
  <defs>
    <clipPath id="right-half">
      <rect x="400" y="0" width="400" height="800" />
    </clipPath>
  </defs>

  <path d="M 400,80 
           C 540,115 680,150 680,150 
           C 680,320 660,460 560,570 
           C 500,640 400,680 400,680 
           C 400,680 300,640 240,570 
           C 140,460 120,320 120,150 
           C 120,150 260,115 400,80 Z" 
        fill="#0046ad" />

  <path d="M 400,120 
           C 530,150 660,180 660,180 
           C 660,330 640,450 540,550 
           C 480,620 400,650 400,650 
           C 400,650 320,620 260,550 
           C 160,450 140,330 140,180 
           C 140,180 270,150 400,120 Z" 
        fill="none" stroke="#ffffff" stroke-width="20" stroke-linejoin="round" />

  <path d="M 400,132 
           C 520,160 650,190 650,190 
           C 650,325 631,440 534,530 
           C 475,602 400,632 400,632 
           C 400,632 325,602 266,530 
           C 169,440 150,325 150,190 
           C 150,190 280,160 400,132 Z" 
        fill="#0056c6" />

  <path d="M 400,132 
           C 520,160 650,190 650,190 
           C 650,325 631,440 534,530 
           C 475,602 400,632 400,632 
           C 400,632 325,602 266,530 
           C 169,440 150,325 150,190 
           C 150,190 280,160 400,132 Z" 
        fill="#003e9c" clip-path="url(#right-half)" />

  <path d="M 270,250 L 330,250 L 400,410 L 470,250 L 530,250 L 530,510 L 475,510 L 475,340 L 410,480 L 390,480 L 325,340 L 325,510 L 270,510 Z" 
        fill="#ffffff" />
</svg>
